Coordinates
version=1
nRows=5
nColumns=63
inDegrees=yes

Units are S.I. units (second, meters, Newtons, ...)
If the header above contains a line with 'inDegrees', this indicates whether rotational values are in degrees (yes) or radians (no).

endheader
time	pelvis_tilt	pelvis_list	pelvis_rotation	pelvis_tx	pelvis_ty	pelvis_tz	hip_flexion_r	hip_adduction_r	hip_rotation_r	knee_angle_r	knee_angle_r_beta	ankle_angle_r	subtalar_angle_r	mtp_angle_r	hip_flexion_l	hip_adduction_l	hip_rotation_l	knee_angle_l	knee_angle_l_beta	ankle_angle_l	subtalar_angle_l	mtp_angle_l	L5_S1_Flex_Ext	L5_S1_Lat_Bending	L5_S1_axial_rotation	L4_L5_Flex_Ext	L4_L5_Lat_Bending	L4_L5_axial_rotation	L3_L4_Flex_Ext	L3_L4_Lat_Bending	L3_L4_axial_rotation	L2_L3_Flex_Ext	L2_L3_Lat_Bending	L2_L3_axial_rotation	L1_L2_Flex_Ext	L1_L2_Lat_Bending	L1_L2_axial_rotation	L1_T12_Flex_Ext	L1_T12_Lat_Bending	L1_T12_axial_rotation	Abs_r3	Abs_r2	Abs_r1	Abs_t1	Abs_t2	neck_flexion	neck_bending	neck_rotation	arm_flex_r	arm_add_r	arm_rot_r	elbow_flex_r	pro_sup_r	wrist_flex_r	wrist_dev_r	arm_flex_l	arm_add_l	arm_rot_l	elbow_flex_l	pro_sup_l	wrist_flex_l	wrist_dev_l
      3.93333333	      7.38976448	    -24.47346292	     92.78747892	      0.12663401	      0.91657125	      0.15637875	     50.13443707	      2.80938705	     -6.11243477	     45.11517800	      0.78740840	     32.72676543	     -9.82299042	      0.00000000	     49.58339211	     -8.06217548	    -11.41116915	     47.34493267	      0.82632496	     39.98350958	     10.15657460	      0.00000000	     -0.10526010	      0.24563785	      0.46085663	     -0.19547853	      0.32669834	      0.48966017	     -0.17293182	      0.59724387	      0.48966017	     -0.12030177	      0.59724387	      0.40324955	     -0.09774453	      0.50090470	      0.37444601	     -0.06014562	      0.38049303	      0.34564247	     -0.75186238	      2.77870448	      2.56314631	      0.00000000	      0.00000000	     18.26551270	      1.49067593	      0.57526839	     54.99493014	    -19.64584326	     62.18193300	     69.19108623	     88.42639152	      1.24078164	    -12.69814639	     60.92605453	    -17.80352955	     72.69862162	     62.82904588	     84.48030430	     -8.23730353	    -16.77159321
      3.95000000	      9.57358224	    -25.43522446	     94.29455504	      0.12277360	      0.91045198	      0.16050108	     51.66736057	      3.39259616	     -8.24606509	     45.61805042	      0.79618518	     32.71167059	     -9.19234643	      0.00000000	     52.61456411	     -8.64974329	     -8.68661688	     49.52380064	      0.86435338	     40.69606513	      9.75133333	      0.00000000	     -0.06972173	      0.54672782	      0.27852529	     -0.12948022	      0.72714800	      0.29593312	     -0.11454583	      1.32931402	      0.29593312	     -0.07968496	      1.32931402	      0.24370963	     -0.06474360	      1.11488737	      0.22630180	     -0.03983900	      0.84688139	      0.20889397	     -0.49801533	      6.18469443	      1.54907411	      0.00000000	      0.00000000	     19.81367772	     -0.07504030	      2.55809359	     57.42475715	    -19.74192241	     65.19654485	     67.58619892	     88.69444948	     -2.11710340	    -14.08545697	     60.99013370	    -17.05572241	     70.07467846	     61.22588095	     81.13751446	     -5.28794506	    -16.55024190
      3.96666667	     11.40810567	    -26.48352479	     95.70152024	      0.11941331	      0.90456768	      0.16454417	     53.35141536	      3.65232856	    -10.17123323	     46.22959265	      0.80685860	     32.79288429	     -8.85230852	      0.00000000	     55.56692156	     -8.85999238	     -6.33583983	     51.32588721	      0.89580572	     41.15238050	      9.68045393	      0.00000000	     -0.02345404	      0.78955443	      0.14484685	     -0.04355650	      1.05010739	      0.15389978	     -0.03853264	      1.91972263	      0.15389978	     -0.02680562	      1.91972263	      0.12674099	     -0.02177942	      1.61005938	      0.11768806	     -0.01340164	      1.22301980	      0.10863514	     -0.16752987	      8.93159757	      0.80559472	      0.00000000	      0.00000000	     21.62109890	     -1.44196133	      3.61376496	     59.64777624	    -20.14613519	     68.21956939	     66.25697121	     89.01048088	     -7.08045272	    -16.42269295	     61.72108024	    -16.14256886	     68.65713949	     59.72223399	     79.22022042	     -3.43281874	    -15.45354208
      3.98333333	     12.89736848	    -27.58188547	     96.91050224	      0.11677910	      0.89863387	      0.16861144	     55.15469835	      3.68333036	    -11.83046436	     46.98495430	      0.82004215	     33.02673437	     -8.80697482	      0.00000000	     58.41126897	     -8.82534869	     -4.38149979	     52.89858270	      0.92325444	     41.56971427	      9.83781942	      0.00000000	      0.02774600	      0.97408871	      0.07167742	      0.05152710	      1.29553798	      0.07615726	      0.04558391	      2.36839928	      0.07615726	      0.03171091	      2.36839928	      0.06271774	      0.02576494	      1.98636169	      0.05823790	      0.01585407	      1.50886341	      0.05375806	      0.19818692	     11.01908627	      0.39864830	      0.00000000	      0.00000000	     23.69785986	     -2.54518536	      3.85278912	     61.75432384	    -20.73128670	     71.27738814	     65.11387034	     89.23985013	    -13.02633982	    -19.22510447	     62.86179378	    -15.14845228	     67.98483580	     58.47566287	     79.80335138	     -2.48505094	    -13.92793436
      4.00000000	     13.88473023	    -28.71660046	     97.86334370	      0.11533939	      0.89236278	      0.17281457	     57.10717936	      3.46844478	    -13.00129064	     47.99348689	      0.83764437	     33.40271708	     -9.27054535	      0.00000000	     61.11565664	     -8.56566261	     -3.00039647	     54.35408062	      0.94865767	     41.89750733	     10.06275210	      0.00000000	      0.08846532	      1.06602631	      0.04526544	      0.16428894	      1.41781500	      0.04809453	      0.14533967	      2.59193638	      0.04809453	      0.10110701	      2.59193638	      0.03960726	      0.08214889	      2.17384086	      0.03677817	      0.05054908	      1.65127476	      0.03394908	      0.63189890	     12.05910286	      0.25175280	      0.00000000	      0.00000000	     25.53523788	     -3.13540534	      2.20079383	     63.23396129	    -21.30644542	     73.25247689	     64.20233097	     89.38176039	    -18.10300863	    -21.27505880	     64.40190102	    -14.15967049	     68.42715529	     57.41540801	     80.94626598	     -1.94553639	    -12.42694465
